<svg width="24" height="24" xmlns="http://www.w3.org/2000/svg"><path d="M12.042 23.648C4.229 23.648 0 18.772 0 12.478 0 5.75 4.762.351 13.276.351 19.49.352 24 4.39 24 9.953c0 8.712-10.33 11.012-9.812 6.042-.71 1.108-1.854 2.354-4.053 2.354-2.516 0-4.08-1.842-4.08-4.807 0-4.444 2.921-8.199 6.379-8.199 1.659 0 2.8.876 3.277 2.221l.464-1.632h2.338c-.244.832-2.321 8.527-2.321 8.527-.648 2.666 1.35 2.713 3.122 1.297 3.329-2.58 3.501-9.327-.998-12.14C13.495.723 2.521 2.512 2.521 12.307c0 5.611 3.95 9.381 9.829 9.381 3.436 0 5.542-.93 7.295-1.948l1.177 1.698c-1.711.966-4.461 2.21-8.78 2.21zM9.698 9.343c-.715 1.34-1.177 3.076-1.177 4.424 0 3.61 3.522 3.633 5.252.24.712-1.395 1.171-3.172 1.171-4.53 0-2.917-3.495-3.434-5.246-.134z" fill="#8A6F48"/></svg>
