<svg width="30" height="30" viewBox="0 0 30 30" fill="none" xmlns="http://www.w3.org/2000/svg">
<path d="M25.9847 9.40437C25.9847 9.60716 25.9975 9.8119 25.9822 10.0134C25.9639 10.248 25.9321 10.4827 25.8912 10.7153C25.8343 11.0453 25.7669 11.3731 25.6889 11.6981C25.6305 11.9379 25.5573 12.1732 25.4695 12.4027C25.2782 12.9012 25.0662 13.3893 24.7869 13.8391C24.6146 14.1166 24.4386 14.3909 24.2589 14.6619C24.1897 14.7607 24.1141 14.8543 24.0328 14.9421C23.8953 15.0967 23.7627 15.256 23.6136 15.3938C23.3948 15.6027 23.1657 15.7991 22.9273 15.982C22.7097 16.1445 22.4653 16.2621 22.2428 16.4201C21.996 16.5943 21.7136 16.6697 21.4509 16.8016C21.2162 16.9186 20.965 16.9576 20.7261 17.0486C20.4217 17.1656 20.1021 17.1929 19.7905 17.2637C19.458 17.3398 19.1201 17.3957 18.7864 17.4685C18.512 17.527 18.2401 17.5972 17.9675 17.6621C17.8123 17.6985 17.6559 17.7258 17.5055 17.7746C17.3197 17.835 17.1389 17.9137 16.958 17.9852C16.8351 18.032 16.7062 18.0671 16.5889 18.1275C16.4178 18.2185 16.2564 18.3323 16.0859 18.4291C15.8066 18.5864 15.5738 18.8093 15.3624 19.0531C15.1839 19.2611 15.0287 19.4957 14.8735 19.7264C14.618 20.108 14.442 20.535 14.2844 20.9718C14.1291 21.3988 13.9868 21.831 13.8413 22.2626C13.7063 22.6688 13.5785 23.0763 13.441 23.4813C13.3196 23.833 13.1937 24.1829 13.0634 24.531C12.8774 25.0323 12.6483 25.5142 12.3789 25.9706C12.1766 26.3157 11.9603 26.6524 11.681 26.9313C11.4574 27.1542 11.241 27.3888 10.966 27.5448C10.6935 27.7008 10.4124 27.836 10.1105 27.9069C9.74773 27.9884 9.37618 28.0166 9.00621 27.9907C8.86627 27.9829 8.72816 27.942 8.58821 27.9147C8.50449 27.8978 8.41955 27.8841 8.33827 27.8568C8.26982 27.8341 8.20688 27.7938 8.14149 27.7587C7.95694 27.6631 7.76016 27.5871 7.59149 27.4675C7.38508 27.3142 7.18904 27.1456 7.00483 26.9631C6.66627 26.6433 6.41205 26.2462 6.18472 25.8322C6.0308 25.555 5.89186 25.2688 5.76855 24.9749C5.65122 24.6915 5.56322 24.3945 5.46789 24.1007C5.39379 23.8721 5.32451 23.6417 5.26011 23.4098C5.20389 23.2037 5.15928 22.9931 5.11161 22.7839C5.067 22.5902 5.01994 22.3978 4.98205 22.2021C4.91361 21.8538 4.85066 21.5047 4.7865 21.1563C4.75807 21.0093 4.73097 20.862 4.70522 20.7144C4.66855 20.4934 4.63555 20.2717 4.60072 20.0501C4.57383 19.885 4.5445 19.7212 4.52128 19.5561C4.49439 19.3741 4.47239 19.1922 4.4455 19.0108C4.4235 18.8535 4.39783 18.6969 4.37705 18.5396C4.3575 18.3927 4.34039 18.2458 4.32267 18.0989C4.30274 17.9409 4.28359 17.7827 4.26522 17.6244C4.24689 17.4711 4.23161 17.3183 4.21511 17.1649L4.15644 16.6333C4.14972 16.5696 4.14239 16.5078 4.13811 16.4441C4.11733 16.1835 4.09656 15.9215 4.077 15.659C4.06404 15.4967 4.05385 15.3342 4.04644 15.1715C4.03361 14.918 4.02078 14.6665 4.01589 14.4136C4.00662 13.9979 4.00132 13.5822 4 13.1664C4 12.9207 4.00122 12.6756 4.0165 12.4319C4.03239 12.1771 4.06539 11.9223 4.09106 11.6675C4.11183 11.4648 4.13017 11.2633 4.15522 11.0605C4.16928 10.9467 4.19433 10.8343 4.21633 10.7225C4.27255 10.4417 4.32389 10.1616 4.38805 9.88275C4.4345 9.68126 4.49867 9.48627 4.55061 9.28738C4.64655 8.91625 4.79078 8.56592 4.93194 8.21299C4.99611 8.0505 5.07555 7.89451 5.15622 7.74177C5.26989 7.52793 5.37989 7.3128 5.50822 7.11131C5.6665 6.86562 5.83394 6.62773 6.01116 6.39765C6.17896 6.17916 6.35702 5.96983 6.54466 5.77043C6.69133 5.61444 6.85755 5.47925 7.01522 5.33821C7.17044 5.20042 7.32138 5.05678 7.48577 4.93263C7.73755 4.74024 7.99605 4.55825 8.2576 4.38081C8.40977 4.27812 8.57171 4.18973 8.7306 4.09873C8.9781 3.95639 9.2256 3.81275 9.47616 3.67755C9.63504 3.59306 9.79821 3.51896 9.96138 3.44747C10.3788 3.26743 10.7949 3.08544 11.2172 2.9171C11.4983 2.80661 11.7868 2.72016 12.0721 2.62332C12.2188 2.57327 12.3624 2.51867 12.5103 2.47447C12.6325 2.43808 12.756 2.41858 12.8794 2.38803C13.0139 2.35553 13.1446 2.31068 13.2803 2.28404C13.463 2.24569 13.6488 2.21904 13.8346 2.18849C14.0424 2.15469 14.2495 2.12024 14.4579 2.0897C14.5429 2.07735 14.6309 2.0767 14.7176 2.0702C15.0049 2.0533 15.2945 2.0351 15.5818 2.02015C15.6966 2.01365 15.8152 1.987 15.927 2.0078C16.1978 2.0598 16.4703 2.01885 16.741 2.0403C17.0026 2.0598 17.2623 2.0897 17.522 2.12284C17.709 2.14754 17.8936 2.18979 18.0806 2.22034C18.2444 2.24634 18.4075 2.26259 18.5707 2.28988C18.7021 2.31263 18.8335 2.34253 18.9649 2.37308C19.246 2.44003 19.5265 2.50047 19.8045 2.57912C20.0514 2.65061 20.2916 2.75786 20.5403 2.8196C20.8269 2.89305 21.0897 3.03539 21.3659 3.13094C21.6482 3.22778 21.8915 3.40652 22.1603 3.52611C22.4751 3.66716 22.747 3.88099 23.0269 4.08378C23.239 4.23847 23.4455 4.40356 23.638 4.58425C23.9234 4.85074 24.2002 5.12762 24.4667 5.4162C24.6243 5.58519 24.7588 5.78278 24.9024 5.96867C25.1346 6.27026 25.3045 6.61409 25.4695 6.95857C25.6009 7.23415 25.7097 7.52663 25.7977 7.82237C25.871 8.0648 25.893 8.32544 25.9474 8.57372C26.0073 8.84671 26.0061 9.12229 25.992 9.39917L25.9847 9.40437Z" fill="#8A6F48"/>
</svg>
