<?xml version="1.0" standalone="no"?>
<!DOCTYPE svg PUBLIC "-//W3C//DTD SVG 20010904//EN"
 "http://www.w3.org/TR/2001/REC-SVG-20010904/DTD/svg10.dtd">
<svg version="1.0" xmlns="http://www.w3.org/2000/svg"
 width="700.000000pt" height="700.000000pt" viewBox="0 0 700.000000 700.000000"
 preserveAspectRatio="xMidYMid meet">
<metadata>
Created by potrace 1.11, written by Peter Selinger 2001-2013
</metadata>
<g transform="translate(0.000000,700.000000) scale(0.100000,-0.100000)"
fill="#000000" stroke="none">
<path d="M3140 6350 c-929 -125 -1723 -697 -2130 -1535 -135 -278 -208 -519
-256 -851 -22 -147 -25 -529 -5 -679 106 -819 532 -1514 1213 -1976 56 -38
106 -69 110 -69 4 0 8 8 8 17 0 9 7 24 15 33 14 16 10 21 -52 58 -156 92 -338
236 -488 387 -407 406 -671 929 -760 1505 -25 160 -31 522 -11 693 39 336 127
629 276 923 413 811 1222 1365 2123 1455 176 17 548 7 707 -20 316 -54 617
-159 882 -307 94 -53 97 -56 84 -77 -29 -47 -3063 -5183 -3076 -5207 -33 -65
29 28 297 445 160 248 681 1058 1160 1800 1049 1628 1447 2247 1663 2585 89
140 164 257 166 259 7 8 200 -157 300 -256 209 -209 373 -441 509 -718 129
-261 211 -525 251 -810 26 -182 26 -557 0 -740 -40 -285 -121 -545 -251 -810
-139 -284 -298 -506 -521 -727 -407 -402 -894 -652 -1464 -749 -159 -27 -531
-37 -707 -20 -299 30 -601 115 -883 248 -73 34 -116 50 -119 42 -2 -6 -12 -20
-22 -30 -22 -22 -21 -23 108 -88 881 -440 1944 -373 2763 174 179 119 276 200
435 359 313 314 539 687 675 1111 237 743 141 1575 -259 2244 -132 220 -325
460 -495 614 -86 78 -232 198 -261 214 -15 9 -6 27 74 154 78 125 91 151 91
188 0 37 -6 49 -39 82 -33 34 -45 39 -83 39 -31 0 -54 -7 -72 -21 -14 -11 -63
-83 -107 -158 l-82 -138 -131 68 c-307 159 -614 253 -961 294 -179 21 -500 18
-675 -5z m2045 -191 c0 -46 -9 -74 -54 -166 l-54 -111 -68 45 c-79 53 -80 43
11 157 60 76 134 140 154 133 6 -2 11 -28 11 -58z m-205 -418 c-138 -181 -230
-224 -199 -93 12 47 77 197 105 240 l15 23 68 -48 69 -47 -58 -75z"/>
<path d="M1460 5276 l0 -53 84 -18 c46 -10 89 -21 95 -24 7 -5 0 -195 -24
-615 -19 -334 -37 -611 -39 -615 -3 -4 -50 -18 -105 -31 l-101 -24 0 -53 0
-53 280 0 280 0 0 54 0 54 -95 21 -95 22 0 37 c0 51 50 975 53 978 1 1 118
-262 259 -585 l257 -586 53 -3 54 -3 254 585 c139 322 255 584 257 582 4 -4
63 -1000 60 -1002 -1 -1 -45 -12 -97 -25 l-95 -24 0 -50 0 -50 338 -3 337 -2
0 53 0 54 -104 23 -103 23 -6 66 c-3 36 -20 313 -38 614 -27 455 -30 550 -19
557 7 4 51 16 97 26 l83 17 0 54 0 53 -228 0 c-228 0 -229 0 -239 -22 -6 -13
-115 -264 -243 -558 -128 -294 -235 -538 -239 -542 -4 -4 -116 246 -250 557
l-244 565 -239 0 -238 0 0 -54z"/>
<path d="M3630 3178 l0 -54 100 -24 100 -24 0 -616 0 -616 -100 -24 -100 -24
0 -53 0 -53 340 0 340 0 0 53 0 54 -100 23 -100 22 0 264 0 264 93 0 92 -1
180 -339 180 -340 203 0 203 0 -3 52 -3 53 -94 25 -94 25 -148 274 c-82 151
-149 276 -149 278 0 2 30 17 68 35 166 78 255 249 224 431 -23 143 -92 235
-216 292 -145 67 -159 68 -608 72 l-408 4 0 -53z m757 -115 c84 -29 141 -75
170 -139 22 -49 25 -66 21 -138 -5 -101 -35 -159 -106 -211 -65 -47 -138 -65
-260 -65 l-102 0 0 292 0 291 113 -6 c66 -4 133 -14 164 -24z"/>
</g>
</svg>
