<svg width="30" height="30" fill="none" xmlns="http://www.w3.org/2000/svg"><g clip-path="url(#prefix__clip0)"><path d="M15.03 2.671c3.957 0 4.426.015 5.99.087 4.016.183 5.892 2.088 6.075 6.075.072 1.562.085 2.032.085 5.989 0 3.958-.014 4.426-.085 5.989-.184 3.983-2.055 5.892-6.075 6.075-1.564.071-2.03.086-5.99.086-3.957 0-4.426-.015-5.989-.086-4.026-.184-5.892-2.099-6.075-6.077-.072-1.562-.086-2.03-.086-5.989 0-3.957.016-4.425.086-5.988.184-3.986 2.055-5.893 6.075-6.075 1.564-.07 2.032-.086 5.989-.086zm0-2.671C11.005 0 10.5.017 8.92.089 3.538.336.547 3.322.3 8.709.227 10.293.21 10.797.21 14.82c0 4.026.017 4.53.088 6.111.247 5.383 3.234 8.374 8.62 8.621 1.583.072 2.087.089 6.112.089s4.53-.017 6.11-.089c5.378-.247 8.377-3.233 8.62-8.62.073-1.581.09-2.086.09-6.111s-.017-4.53-.088-6.11c-.243-5.378-3.233-8.374-8.62-8.62C19.56.016 19.055 0 15.03 0zm0 7.21a7.61 7.61 0 100 15.221 7.61 7.61 0 000-15.22zm0 12.55a4.94 4.94 0 110-9.88 4.94 4.94 0 010 9.88zm7.912-14.628a1.78 1.78 0 10-.001 3.558 1.78 1.78 0 000-3.558z" fill="#8A6F48"/></g><defs><clipPath id="prefix__clip0"><path fill="#fff" transform="translate(.21)" d="M0 0h29.641v29.641H0z"/></clipPath></defs></svg>
