<svg width="31" height="30" fill="none" xmlns="http://www.w3.org/2000/svg"><g clip-path="url(#prefix__clip0)"><path d="M29.153 12.428c-3.016 6.444-10.296 15.215-14.898 15.215-4.535 0-5.19-9.672-7.667-16.109-1.22-3.168-2.006-2.44-4.29-.841L.903 8.896c3.332-2.93 6.667-6.332 8.716-6.521 2.307-.221 3.727 1.356 4.258 4.733.702 4.437 1.682 11.325 3.394 11.325 1.334 0 4.62-5.464 4.79-7.418.3-2.86-2.104-2.946-4.19-2.054C21.174-1.85 34.907.141 29.154 12.428z" fill="#8A6F48"/></g><defs><clipPath id="prefix__clip0"><path fill="#fff" transform="translate(.902)" d="M0 0h29.641v29.641H0z"/></clipPath></defs></svg>
