<svg xmlns="http://www.w3.org/2000/svg" width="500" height="500" fill="none"><path fill="#fff" d="M0 0h500v500H0z"/><path fill="#8A6F48" d="M72.42 226.807v-8.457l17.448-4.228 5.878-103.683-16.162-3.861.183-8.456h39.303l41.324 95.962 41.69-95.962h37.834v8.456l-16.529 3.861 6.244 103.867 17.632 4.044v8.457h-55.833v-8.457l16.162-3.86-4.959-87.138-43.527 100.374h-8.081l-44.078-100.558-4.592 87.322 16.346 3.86v8.457zm188.513 175.842v-8.456l16.897-4.044V286.465l-16.897-4.044v-8.456h51.975q9.918 0 18.183 1.654 8.264 1.471 15.978 5.331 7.898 3.676 12.305 11.214 4.592 7.355 4.592 17.832 0 24.45-25.345 33.091l25.528 47.245 16.162 4.045v8.272h-33.426l-30.303-56.805H300.42v44.305l16.896 4.044v8.456zm39.487-67.835h10.652q13.407 0 21.488-6.618 8.265-6.618 8.265-18.567 0-11.766-8.081-17.832-8.082-6.25-21.672-6.251H300.42z"/><path fill="#8A6F48" d="M250 473.443c127.578 0 231-103.521 231-231.221 0-83.588-44.311-156.816-110.704-197.434-.529 1.058-1.102 2.16-3.074 4.662 62.907 40.001 104.652 110.365 104.652 190.488 0 124.547-100.869 225.512-225.296 225.512-38.602 0-74.937-9.717-106.696-26.842q.037.286.037.58a4.57 4.57 0 0 1-3.473 4.436c33.534 18.984 72.28 29.819 113.554 29.819m-119.04-33.025C63.87 399.959 19 326.335 19 242.222 19 114.521 122.422 11 250 11c42.76 0 82.806 11.63 117.154 31.9q-.255.361-.51.71l-.003.004c-.787 1.082-1.574 2.165-2.36 3.997-34.255-21.049-74.563-33.185-117.703-33.185-124.428 0-225.296 100.965-225.296 225.512 0 83.287 45.106 156.028 112.201 195.084a4.57 4.57 0 0 0-2.523 5.396"/><path fill="#8A6F48" d="M381.185 20.135 103.985 490c30.111-46.949 69.732-108.509 110.123-171.265l.002-.003c66.304-103.016 134.682-209.255 166.467-259.375a4.64 4.64 0 0 1-2.307-1.534c-8.75 13.397-17.894 22.365-21.06 20.405-3.399-2.104 1.38-16.004 10.673-31.047s19.582-25.532 22.981-23.428c3.168 1.96-.771 14.176-8.849 28.01.919.298 1.769.867 2.356 1.602 9.013-14.253 14.245-22.71 14.496-23.524 2.281-7.423-2.852-10.848-2.852-10.848q-.856-.857-2.282-1.713c-2.852-1.713-9.696-1.713-12.548 2.855"/></svg>